<svg xmlns="http://www.w3.org/2000/svg" xmlns:xlink="http://www.w3.org/1999/xlink" width="0" height="0" style="position:absolute">
	
		<symbol id="icon-close" viewBox="0 0 70 70">
			<style>.st0{fill:#767676}</style><path class="st0" d="M40.5 34.9l28-28c1.6-1.6 1.6-4.1 0-5.6-1.6-1.6-4.1-1.6-5.6 0l-28 28-28-28C5.3-.3 2.8-.3 1.3 1.3s-1.6 4.1 0 5.6l28 28-28 28c-1.6 1.6-1.6 4.1 0 5.6.6.8 1.7 1.2 2.7 1.2s2-.4 2.8-1.2l28-28 28 28c.8.8 1.8 1.2 2.8 1.2 1 0 2-.4 2.8-1.2 1.6-1.6 1.6-4.1 0-5.6l-27.9-28z"></path>
		</symbol>
	
		<symbol id="icon-favicon" viewBox="0 0 55 30">
			<g transform="translate(.468)" fill="#E3051D" fill-rule="nonzero"><g transform="translate(9.224 18.804)"><path d="M1.617 8.03A1.611 1.611 0 0 1 .66 5.132C4.914 1.938 11.422.03 18.066.03c6.622 0 13.113 1.909 17.36 5.103.712.532.854 1.538.32 2.252a1.595 1.595 0 0 1-2.238.326c-2.87-2.155-8.433-4.458-15.442-4.458-7.043 0-12.617 2.303-15.487 4.458-.29.217-.626.32-.962.32z"></path><path d="M3.08 10.78c-.313 0-.632-.138-.848-.4a1.107 1.107 0 0 1 .154-1.55c3.678-3.035 9.537-4.84 15.68-4.84 6.11 0 11.957 1.811 15.63 4.84.466.383.535 1.08.153 1.55a1.098 1.098 0 0 1-1.543.154C29.01 7.813 23.686 6.19 18.061 6.19c-5.563 0-11.04 1.663-14.286 4.344-.2.16-.45.245-.695.245z"></path></g><path d="M3.724 6.441A3.68 3.68 0 0 0 .17 9.213a3.677 3.677 0 0 0 .398 2.79 3.702 3.702 0 0 0 3.143 1.806h.023a3.676 3.676 0 0 0 3.547-2.766 3.652 3.652 0 0 0-.398-2.79 3.664 3.664 0 0 0-3.16-1.812z"></path><g transform="translate(4.726)"><path d="M22.541 9.276a3.686 3.686 0 0 0-3.678 3.687 3.686 3.686 0 0 0 3.678 3.686 3.681 3.681 0 0 0 3.673-3.686c-.006-2.03-1.651-3.687-3.673-3.687zM22.541.051a3.686 3.686 0 0 0-3.678 3.687 3.686 3.686 0 0 0 3.678 3.686 3.681 3.681 0 0 0 3.673-3.686C26.208 1.703 24.563.05 22.54.05zM12.771 10.562a3.77 3.77 0 0 0-.974.132 3.69 3.69 0 0 0-2.573 4.526 3.69 3.69 0 0 0 3.524 2.71h.086c.307-.006.609-.052.905-.132a3.65 3.65 0 0 0 2.22-1.732c.484-.857.61-1.846.354-2.795a3.684 3.684 0 0 0-3.542-2.709zM3.678 14.386c-.655 0-1.298.177-1.862.514a3.665 3.665 0 0 0-1.69 2.258 3.715 3.715 0 0 0 .392 2.795 3.704 3.704 0 0 0 3.149 1.806h.023a3.672 3.672 0 0 0 3.553-2.772 3.675 3.675 0 0 0-.393-2.79 3.704 3.704 0 0 0-3.172-1.811zM33.274 10.694a3.727 3.727 0 0 0-.968-.132 3.682 3.682 0 0 0-3.541 2.715 3.69 3.69 0 0 0 2.573 4.527c.32.085.644.131.974.131a3.687 3.687 0 0 0 3.541-2.715 3.698 3.698 0 0 0-2.579-4.526zM35.7 1.789a3.694 3.694 0 0 0-.968-.132 3.682 3.682 0 0 0-3.542 2.715A3.69 3.69 0 0 0 33.764 8.9c.319.086.643.131.968.131A3.687 3.687 0 0 0 35.7 1.79zM43.255 14.9a3.641 3.641 0 0 0-1.862-.514 3.69 3.69 0 0 0-3.564 4.6c.24.955.843 1.755 1.685 2.258.57.338 1.213.515 1.868.515a3.68 3.68 0 0 0 3.16-1.806c.501-.846.638-1.84.393-2.795a3.623 3.623 0 0 0-1.68-2.258zM49.627 9.213a3.672 3.672 0 0 0-3.548-2.772 3.673 3.673 0 0 0-3.16 1.812 3.666 3.666 0 0 0-.398 2.795 3.645 3.645 0 0 0 1.685 2.252 3.646 3.646 0 0 0 1.868.514 3.69 3.69 0 0 0 3.165-1.812 3.7 3.7 0 0 0 .388-2.789zM10.346 9.03c.324 0 .654-.045.967-.131 1.953-.537 3.104-2.566 2.574-4.527a3.677 3.677 0 0 0-3.541-2.715 3.69 3.69 0 0 0-3.541 4.658 3.695 3.695 0 0 0 3.523 2.71l.018.005z"></path></g></g>
		</symbol>
	
		<symbol id="icon-logo" viewBox="0 0 148 54">
			<g fill-rule="evenodd"><g transform="translate(128.792 33.264)"><path d="M10.289 1.989c0-1.08.876-1.96 1.953-1.96 1.081 0 1.958.88 1.958 1.96v14.363l-.034.623c-.61 1.949-2.67 1.772-2.67 1.772-1.27.045-1.896-.858-1.896-.858L4.282 8.316c-.057-.091-.217.023-.222.114v8.545a2.006 2.006 0 0 1-1.999 2.012 2.016 2.016 0 0 1-2.01-2.012V2.909c0-.423.217-.754.217-.754C.444 1.829.74 1.109 1.856.64 2.926.194 4.481.732 5.04 1.646c1.828 3.006 3.348 6.093 5.084 9.025.177.028.166-.263.166-.263V1.989zM18.55 1.68c0 .806-.655 1.452-1.446 1.452a1.452 1.452 0 0 1 0-2.903c.803 0 1.446.657 1.446 1.451zm-2.687 0c0 .686.546 1.258 1.241 1.258.678 0 1.236-.56 1.236-1.258 0-.68-.536-1.257-1.236-1.257-.706 0-1.241.577-1.241 1.257zm1.32-.817c.103 0 .581 0 .581.452 0 .182-.08.348-.307.405v.006c.228.063.268.2.279.417.011.28.011.315.051.383h-.205c-.034-.051-.04-.097-.051-.308 0-.263-.046-.395-.427-.395h-.416v.703h-.205V.863h.7zm-.489.766h.416c.108 0 .45 0 .45-.303 0-.269-.302-.269-.41-.269h-.456v.572z"></path></g><g transform="translate(0 33.264)"><path d="M31.754.749c.962.371 1.418 1.137 2.05 1.8 1.087 1.149 2.02 2.31 3.205 3.372.074.069.29.069.348 0C38.854 4.132 40.06 2.321 41.9.87c1.008-.789 2.642-.212 2.955 1.126.154.651-.068 1.251-.415 1.714-1.754 2.32-3.457 4.235-5.21 6.419-.051 2.412 0 4.44 0 6.967 0 .994-1.179 1.777-1.97 1.76-.57 0-1.264-.251-1.617-.897-.171-.297-.29-.657-.302-.949-.091-2.28-.194-4.56-.188-6.847-2.522-3.23-5.864-6.07-6.001-7.259-.16-1.36.848-2.829 2.602-2.154M61.606 14.792V2.56c-.011-3.121-4.282-2.612-4.14-.07v15.216s0 1.268 1.521 1.148h6.747s1.942.04 2.061-1.886c0 0-.017-1.68-1.605-2.029l-4.379-.017s-.279-.069-.216-.366M54.962 16.86c-.171 1.687-1.395 2.052-2.141 2.001-.535-.097-1.555-.291-1.788-1.492-.148-.771-.182-1.943-.205-2.114-.006-.046-5.005-.018-5.01-.018-.872 1.144-1.731 2.527-2.534 3.304-.29.28-.723.354-1.037.331-.785-.045-1.64-.457-1.93-1.263-.182-.485-.353-1.051-.011-1.549 2.351-3.395 4.47-6.23 6.895-9.533 1.338-1.823 2.534-3.44 3.906-5.195.706-.903 1.32-.932 1.964-.95-.04 0 1.737-.04 1.89 1.607v14.854m-4.987-5.59c.017 0 .877.03.877 0 .028-.96 0-2.108-.017-3.04-.718.949-1.304 1.79-1.993 2.715-.063.086-.108.291.09.309.371.022.85-.018 1.043.017"></path><path d="M30.894 9.768c0 5.08-4.105 9.196-9.172 9.196-5.062 0-9.167-4.115-9.167-9.196C12.555 4.68 16.66.56 21.722.56c5.067 0 9.172 4.127 9.172 9.208M21.756 4.83c-2.722 0-4.925 2.211-4.925 4.943 0 2.727 2.209 4.939 4.925 4.939a4.931 4.931 0 0 0 4.925-4.939c-.006-2.732-2.204-4.943-4.925-4.943M73.312 8.602c.405-3.247 2.574-5.996 5.46-7.225C82.253-.114 86.415.72 88.84 3.761c.524.657.365 1.526-.12 2.189-.506.68-1.32 1.034-2.05.754-1.229-.48-2.077-1.589-3.444-1.874-2.818-.583-5.471 1.297-5.876 4.052-.404 2.738 1.15 5.36 3.923 5.887 1.942.366 3.468-.686 5.068-1.812.757-.537 2.027-.269 2.5.686.284.571.495 1.189.147 1.806-1.304 2.315-3.957 3.15-6.41 3.383-1.885.183-3.6-.474-5.21-1.457-2.961-1.806-4.504-5.247-4.055-8.773M90.251 16.815V1.955C90.4.315 92.187.349 92.141.349c.644.011 1.259.045 1.965.948 1.378 1.76 2.562 3.373 3.906 5.196 2.431 3.298 4.543 6.138 6.895 9.533.342.492.165 1.058-.011 1.543-.297.8-1.15 1.212-1.936 1.258-.313.023-.746-.057-1.037-.326-.802-.777-1.662-2.16-2.539-3.304-.006 0-5.005-.034-5.01.012-.018.177-.052 1.349-.2 2.115-.233 1.194-1.252 1.394-1.788 1.491-.08.017.109-.011 0 0-.745.052-1.97-.308-2.14-1.994m6.035-5.624c.2-.006.16-.218.091-.303-.689-.932-1.281-1.772-1.993-2.715-.017.931-.045 2.075-.011 3.035 0 .034.854 0 .877 0 .182-.029.672.005 1.036-.017M1.628 2.172C2.773 1.223 3.354.852 5.176.612c1.543-.206 2.898.445 3.091.514 2.426.817 4.066 3.624 3.741 6.401-.194 1.652-1.167 3.144-2.38 4.218 1.173 2.6 3.36 4.298 3.012 5.59-.24.892-.484 1.12-1.27 1.463-.5.217-1.224.16-1.64-.194-2.032-1.738-3.108-4.247-4.822-6.041-.421-.44-.61-.246-.61-.006.006 2.103.024 3.67-.09 4.698-.063.617-.644 1.326-1.042 1.526-1.093.549-2.58-.114-2.767-1.349-.04-.223-.342-1.177-.36-5.521-.005-2.149 0-2.623 0-6.041.007-1.4.667-2.938 1.59-3.698m4.378 6.487c1.167 0 2.112-.875 2.112-1.955s-.945-1.96-2.112-1.96c-1.167 0-2.112.874-2.112 1.96 0 1.08.945 1.955 2.112 1.955M139.064 1.989a1.965 1.965 0 0 1 3.929 0V16.42l-.04.63c-.61 1.96-2.682 1.777-2.682 1.777a2.277 2.277 0 0 1-1.902-.858l-5.346-9.613c-.057-.091-.217.023-.222.114v8.585c0 1.114-.9 2.023-2.01 2.023a2.023 2.023 0 0 1-2.016-2.023V2.909c0-.428.216-.754.216-.754.177-.326.479-1.052 1.6-1.526 1.076-.452 2.637.091 3.195 1.006 1.839 3.017 3.365 6.12 5.107 9.07.176.029.165-.263.165-.263V1.99h.006zM116.306 1.989c0-1.086.877-1.972 1.964-1.972 1.082 0 1.964.88 1.964 1.972V16.42l-.04.63c-.609 1.96-2.681 1.777-2.681 1.777-1.281.045-1.902-.858-1.902-.858l-5.352-9.613c-.051-.091-.216.023-.222.114v8.585c0 1.114-.9 2.023-2.01 2.023-1.11 0-2.01-.909-2.01-2.023V2.909c0-.428.21-.754.21-.754.183-.326.48-1.052 1.6-1.526 1.077-.452 2.643.091 3.2 1.006 1.834 3.017 3.36 6.12 5.097 9.07.182.029.17-.263.17-.263V1.99h.012zM126.651 16.935a2.138 2.138 0 0 1-2.13 2.138 2.133 2.133 0 0 1-2.123-2.138V2.132c0-1.178.95-2.132 2.124-2.132 1.173 0 2.124.954 2.124 2.132V16.935h.005z"></path></g><g transform="translate(44.468)"><g transform="translate(9.224 18.804)"><path d="M1.617 8.03A1.611 1.611 0 0 1 .66 5.132C4.914 1.938 11.422.03 18.066.03c6.622 0 13.113 1.909 17.36 5.103.712.532.854 1.538.32 2.252a1.595 1.595 0 0 1-2.238.326c-2.87-2.155-8.433-4.458-15.442-4.458-7.043 0-12.617 2.303-15.487 4.458-.29.217-.626.32-.962.32z"></path><path d="M3.08 10.78c-.313 0-.632-.138-.848-.4a1.107 1.107 0 0 1 .154-1.55c3.678-3.035 9.537-4.84 15.68-4.84 6.11 0 11.957 1.811 15.63 4.84.466.383.535 1.08.153 1.55a1.098 1.098 0 0 1-1.543.154C29.01 7.813 23.686 6.19 18.061 6.19c-5.563 0-11.04 1.663-14.286 4.344-.2.16-.45.245-.695.245z"></path></g><path d="M3.724 6.441A3.68 3.68 0 0 0 .17 9.213a3.677 3.677 0 0 0 .398 2.79 3.702 3.702 0 0 0 3.143 1.806h.023a3.676 3.676 0 0 0 3.547-2.766 3.652 3.652 0 0 0-.398-2.79 3.664 3.664 0 0 0-3.16-1.812z"></path><g transform="translate(4.726)"><path d="M22.541 9.276a3.686 3.686 0 0 0-3.678 3.687 3.686 3.686 0 0 0 3.678 3.686 3.681 3.681 0 0 0 3.673-3.686c-.006-2.03-1.651-3.687-3.673-3.687zM22.541.051a3.686 3.686 0 0 0-3.678 3.687 3.686 3.686 0 0 0 3.678 3.686 3.681 3.681 0 0 0 3.673-3.686C26.208 1.703 24.563.05 22.54.05zM12.771 10.562a3.77 3.77 0 0 0-.974.132 3.69 3.69 0 0 0-2.573 4.526 3.69 3.69 0 0 0 3.524 2.71h.086c.307-.006.609-.052.905-.132a3.65 3.65 0 0 0 2.22-1.732c.484-.857.61-1.846.354-2.795a3.684 3.684 0 0 0-3.542-2.709zM3.678 14.386c-.655 0-1.298.177-1.862.514a3.665 3.665 0 0 0-1.69 2.258 3.715 3.715 0 0 0 .392 2.795 3.704 3.704 0 0 0 3.149 1.806h.023a3.672 3.672 0 0 0 3.553-2.772 3.675 3.675 0 0 0-.393-2.79 3.704 3.704 0 0 0-3.172-1.811zM33.274 10.694a3.727 3.727 0 0 0-.968-.132 3.682 3.682 0 0 0-3.541 2.715 3.69 3.69 0 0 0 2.573 4.527c.32.085.644.131.974.131a3.687 3.687 0 0 0 3.541-2.715 3.698 3.698 0 0 0-2.579-4.526zM35.7 1.789a3.694 3.694 0 0 0-.968-.132 3.682 3.682 0 0 0-3.542 2.715A3.69 3.69 0 0 0 33.764 8.9c.319.086.643.131.968.131A3.687 3.687 0 0 0 35.7 1.79zM43.255 14.9a3.641 3.641 0 0 0-1.862-.514 3.69 3.69 0 0 0-3.564 4.6c.24.955.843 1.755 1.685 2.258.57.338 1.213.515 1.868.515a3.68 3.68 0 0 0 3.16-1.806c.501-.846.638-1.84.393-2.795a3.623 3.623 0 0 0-1.68-2.258zM49.627 9.213a3.672 3.672 0 0 0-3.548-2.772 3.673 3.673 0 0 0-3.16 1.812 3.666 3.666 0 0 0-.398 2.795 3.645 3.645 0 0 0 1.685 2.252 3.646 3.646 0 0 0 1.868.514 3.69 3.69 0 0 0 3.165-1.812 3.7 3.7 0 0 0 .388-2.789zM10.346 9.03c.324 0 .654-.045.967-.131 1.953-.537 3.104-2.566 2.574-4.527a3.677 3.677 0 0 0-3.541-2.715 3.69 3.69 0 0 0-3.541 4.658 3.695 3.695 0 0 0 3.523 2.71l.018.005z"></path></g></g></g>
		</symbol>
	
		<symbol id="icon-marker" viewBox="0 0 576 765.6">
			<style>.st0{fill:#444}</style><path class="st0" d="M287.1 765.6c-21.3.1-41.4-10.1-54.1-27.3-60.3-81-233-340.9-233-465.8C0 122.3 128.7 0 287.1 0s287.1 122.3 287.1 272.5c0 125.1-172.7 384.7-233 465.8-12.6 17.3-32.7 27.4-54.1 27.3zm0-717.7c-131.8 0-239.3 100.7-239.3 224.7 0 97.1 145.7 332.6 223.7 437.1 6.1 8.7 18 10.8 26.7 4.7 1.8-1.3 3.4-2.9 4.7-4.7 77.8-104.6 223.5-340.2 223.5-437.1 0-124-107.5-224.7-239.3-224.7z"></path><path class="st0" d="M287.1 406.7c-79.3 0-143.6-64.3-143.6-143.6s64.3-143.6 143.6-143.6 143.6 64.3 143.6 143.6-64.3 143.6-143.6 143.6zm0-239.2c-52.9 0-95.7 42.8-95.7 95.7s42.8 95.7 95.7 95.7 95.7-42.8 95.7-95.7-42.8-95.7-95.7-95.7z"></path>
		</symbol>
	
		<symbol id="icon-message" viewBox="0 0 768 768">
			<style>.st0{fill:#444}</style><path class="st0" d="M690.6 285.8H547.7V71.4c0-39.5-32-71.4-71.4-71.4H71.4C32 0 0 32 0 71.4v238.1C0 349 32 381 71.4 381h23.8v37.9c.1 26.3 21.5 47.5 47.8 47.4 12.5-.1 24.5-5 33.4-13.8l37.9-37.9v180.7c0 39.5 32 71.4 71.4 71.4h180.7l71.4 71.4c18.7 18.5 48.8 18.5 67.4-.2C614 729 619 717 619 704.5v-37.9h71.4c39.5 0 71.4-32 71.4-71.4v-238c.2-39.5-31.8-71.4-71.2-71.4zM142.9 418.9V381c0-26.3-21.3-47.6-47.6-47.6H71.4c-13.2 0-23.8-10.7-23.8-23.8V71.4c0-13.2 10.7-23.8 23.8-23.8h404.8c13.2 0 23.8 10.7 23.8 23.8v214.3H285.8c-35.5-.4-66 25.4-71.4 60.5l-71.5 72.7zm571.5 176.4c0 13.2-10.7 23.8-23.8 23.8h-71.4c-26.3 0-47.6 21.3-47.6 47.6v37.9l-71.4-71.4c-8.9-8.9-21-14-33.6-14H285.8c-13.2 0-23.8-10.7-23.8-23.8V357.2c0-13.2 10.7-23.8 23.8-23.8h404.8c13.2 0 23.8 10.7 23.8 23.8v238.1z"></path><path class="st0" d="M619.1 500.1H357.2c-13.2 0-23.8-10.7-23.8-23.8s10.7-23.8 23.8-23.8h261.9c13.2 0 23.8 10.7 23.8 23.8s-10.6 23.8-23.8 23.8zM404.8 214.3H142.9c-13.2 0-23.8-10.7-23.8-23.8 0-13.2 10.7-23.8 23.8-23.8h261.9c13.2 0 23.8 10.7 23.8 23.8 0 13.2-10.6 23.8-23.8 23.8z"></path>
		</symbol>
	
		<symbol id="icon-photo" viewBox="0 0 99.8 78.8">
			<path d="M95.9 78.6H3.5C1.5 78.6 0 77 0 75V18.7c0-2 1.5-3.5 3.5-3.5h21.4l2.5-8.7C28.6 2.5 32 0 36 0h27.4c3.9 0 7.4 2.6 8.6 6.4l2.5 8.9H96c2 0 3.5 1.5 3.5 3.5v56.4c0 1.8-1.5 3.4-3.6 3.4zM7.1 71.5h85.4V22.2H71.8c-1.5 0-3-1.1-3.4-2.6L65.2 8.3C65 7.6 64.3 7 63.5 7H36c-.8 0-1.5.5-1.8 1.3L31 19.6c-.5 1.5-1.8 2.6-3.4 2.6H7.1v49.3z"></path><path d="M49.7 66.3c-12.9 0-23.4-10.5-23.4-23.4s10.5-23.3 23.4-23.3S73.1 30.1 73.1 43 62.6 66.3 49.7 66.3zm0-39.6c-9 0-16.3 7.3-16.3 16.3s7.3 16.2 16.3 16.2S66 51.9 66 42.9s-7.3-16.2-16.3-16.2z"></path>
		</symbol>
	
</svg>
