<svg id="logo" viewBox="0 0 148 54" version="1.1" xmlns="http://www.w3.org/2000/svg">
    <g id="logo" stroke="none" stroke-width="1"  fill-rule="evenodd" transform="">

            <g transform="translate(128.792155, 33.264006)" id="Shape">
                <path d="M10.2885687,1.98898179 C10.2885687,0.90875892 11.165403,0.0285773245 12.2415178,0.0285773245 C13.3233263,0.0285773245 14.2001606,0.90875892 14.2001606,1.98898179 L14.2001606,2.00041272 L14.2001606,16.3519451 L14.1659983,16.9749308 C13.5567692,18.9239043 11.4956393,18.7467249 11.4956393,18.7467249 C10.2259376,18.7924486 9.59962744,17.8894052 9.59962744,17.8894052 L4.28168436,8.31600144 C4.22474707,8.224554 4.06532265,8.3388633 4.05962892,8.43031074 L4.05962892,16.9749308 C4.05962892,18.083731 3.16571344,18.9867744 2.06112997,18.9867744 C0.956546506,18.9867744 0.0512435628,18.083731 0.0512435628,16.9749308 L0.0512435628,2.90917164 C0.0512435628,2.48622723 0.267605273,2.15473027 0.267605273,2.15473027 C0.444110878,1.82894877 0.740184796,1.10880019 1.85615572,0.640132069 C2.92657681,0.194325807 4.48096488,0.731579508 5.03895035,1.64605389 C6.86663742,4.65238843 8.38686312,7.73873948 10.1234505,10.670773 C10.2999561,10.6993503 10.2885687,10.4078616 10.2885687,10.4078616 L10.2885687,1.98898179 L10.2885687,1.98898179 Z"></path>
                <path d="M18.5501697,1.68034668 C18.5501697,2.48622723 17.8953909,3.13207477 17.1039625,3.13207477 C16.295453,3.13207477 15.6520616,2.4747963 15.6520616,1.68034668 C15.6520616,0.891612525 16.2897593,0.228618596 17.1039625,0.228618596 C17.9067783,0.228618596 18.5501697,0.88589706 18.5501697,1.68034668 L18.5501697,1.68034668 Z M15.8627296,1.68034668 C15.8627296,2.36620247 16.4093276,2.93774896 17.1039625,2.93774896 C17.7815163,2.93774896 18.3395018,2.3776334 18.3395018,1.68034668 C18.3395018,1.00020636 17.8042912,0.422944403 17.1039625,0.422944403 C16.3979401,0.422944403 15.8627296,1.00020636 15.8627296,1.68034668 L15.8627296,1.68034668 Z M17.1836747,0.863035201 C17.2861619,0.863035201 17.7644351,0.863035201 17.7644351,1.31455693 C17.7644351,1.49745181 17.6847229,1.66320029 17.4569737,1.72035494 L17.4569737,1.7260704 C17.6847229,1.78894052 17.724579,1.92611167 17.7359665,2.14329934 C17.7473539,2.42335712 17.7473539,2.45764991 17.78721,2.52623549 L17.5822358,2.52623549 C17.5480734,2.4747963 17.5423797,2.42907258 17.5309922,2.21760038 C17.5309922,1.954689 17.4854424,1.8232333 17.1039625,1.8232333 L16.6883203,1.8232333 L16.6883203,2.52623549 L16.483346,2.52623549 L16.483346,0.863035201 L17.1836747,0.863035201 L17.1836747,0.863035201 Z M16.694014,1.6289075 L17.1096563,1.6289075 C17.2178371,1.6289075 17.5594609,1.6289075 17.5594609,1.32598786 C17.5594609,1.05736101 17.2576932,1.05736101 17.1495124,1.05736101 L16.694014,1.05736101 L16.694014,1.6289075 L16.694014,1.6289075 Z"></path>
            </g>
            <g transform="translate(0.000000, 33.264006)" id="Shape">
                <path d="M31.7539278,0.748725903 C32.716168,1.12023112 33.1716663,1.88610342 33.8036703,2.54909735 C34.8911726,3.69790579 35.8249441,4.85814517 37.0092398,5.92122164 C37.0832583,5.98980722 37.29962,5.98980722 37.3565573,5.92122164 C38.8540081,4.13228113 40.0610787,2.32047875 41.9001532,0.868750666 C42.9079433,0.0800165087 44.5420436,0.657278464 44.8551987,1.99469725 C45.0089294,2.64626025 44.7868739,3.24638407 44.4395564,3.70933672 C42.6858878,6.02981548 40.9834628,7.94449622 39.2297942,10.1278038 C39.1785507,12.53973 39.2297942,14.56872 39.2297942,17.0949555 C39.2297942,18.0894464 38.0511923,18.8724651 37.2597639,18.8553187 C36.690391,18.8553187 35.995756,18.6038383 35.6427448,17.9579907 C35.4719329,17.6607866 35.3523646,17.3007123 35.3409772,17.0092236 C35.2498775,14.7287531 35.1473904,12.4482826 35.1530841,10.1620966 C32.6307621,6.93285893 29.288543,4.09227287 29.1518935,2.90345617 C28.9924691,1.54317552 30.0002592,0.0743010438 31.7539278,0.748725903"></path> <path d="M61.60615,14.7916232 L61.60615,2.56052828 C61.5947625,-0.560115561 57.3244656,-0.0514391842 57.4668089,2.4919427 L57.4668089,17.7065103 C57.4668089,17.7065103 57.4668089,18.9753435 58.9870345,18.8553187 L65.7341037,18.8553187 C65.7341037,18.8553187 67.6756653,18.895327 67.7952336,16.9692153 C67.7952336,16.9692153 67.7781524,15.2888686 66.189602,14.9402253 L61.8111242,14.9230789 C61.8111242,14.9230789 61.5321315,14.8544933 61.5947625,14.5572891"></path> <path d="M54.961568,16.8606215 C54.7907561,18.5466836 53.5666043,18.9124734 52.8207258,18.8610342 C52.2855153,18.7638713 51.2663377,18.5695455 51.0328949,17.3692978 C50.8848579,16.5977101 50.8506955,15.4260398 50.8279206,15.2545758 C50.8222269,15.2088521 45.8231326,15.2374294 45.8174389,15.2374294 C44.9462983,16.3805224 44.0865452,17.7636649 43.2837294,18.5409682 C42.9933492,18.8210259 42.5606258,18.895327 42.2474707,18.8724651 C41.4617361,18.8267414 40.6076767,18.4152279 40.3172965,17.6093474 C40.1350972,17.1235329 39.9642853,16.5577018 40.305909,16.0604564 C42.6574192,12.6654702 44.7754865,9.83059964 47.2010151,6.52706092 C48.5390415,4.70382762 49.7347246,3.08635105 51.1069133,1.33170332 C51.8129358,0.428659868 52.4278585,0.400082543 53.0712499,0.382936149 C53.0313938,0.382936149 54.8078373,0.342927894 54.961568,1.98898179 L54.961568,16.8434751 M49.9738612,11.2537504 C49.9909424,11.2537504 50.8506955,11.2823277 50.8506955,11.2537504 C50.8791642,10.2935523 50.8506955,9.14474385 50.8336143,8.21312307 C50.1162045,9.16189024 49.5297503,10.0020636 48.8408091,10.9279689 C48.7781781,11.0137009 48.7326283,11.2194576 48.9319088,11.236604 C49.3020012,11.2594659 49.7802744,11.2194576 49.9738612,11.2537504"></path> <path d="M30.8941747,9.76772952 C30.8941747,14.8487778 26.7889959,18.9639126 21.7215769,18.9639126 C16.6598516,18.9639126 12.5546729,14.8487778 12.5546729,9.76772952 C12.5546729,4.68096576 16.6598516,0.560115561 21.7215769,0.560115561 C26.7889959,0.560115561 30.8941747,4.68668122 30.8941747,9.76772952 M21.7557393,4.82956785 C19.0341367,4.82956785 16.8306635,7.04145276 16.8306635,9.77344499 C16.8306635,12.4997217 19.0398305,14.7116067 21.7557393,14.7116067 C24.4773418,14.7116067 26.680815,12.4997217 26.680815,9.77344499 C26.6751213,7.04145276 24.4773418,4.82956785 21.7557393,4.82956785"></path> <path d="M73.3124572,8.60177468 C73.716712,5.35539062 75.8860228,2.606252 78.7727435,1.37742704 C82.2516121,-0.114309298 86.4137281,0.720148578 88.8392568,3.76077591 C89.3630799,4.41805437 89.2036554,5.28680504 88.7196885,5.94979897 C88.2129466,6.62993929 87.3987433,6.98429811 86.6699459,6.70424033 C85.4401004,6.22414128 84.5917348,5.11534109 83.2252398,4.82956785 C80.4068438,4.24659042 77.753566,6.12697838 77.3493112,8.88183246 C76.9450565,11.6195402 78.4994445,14.2429385 81.2722907,14.7687613 C83.2138523,15.1345511 84.7397717,14.0829055 86.3397096,12.9569589 C87.0969756,12.4197052 88.3666772,12.6883321 88.8392568,13.6428147 C89.1239432,14.2143612 89.3346112,14.8316314 88.9872937,15.4489016 C87.6834297,17.7636649 85.0301519,18.5981228 82.5761546,18.8324569 C80.6915303,19.0153517 78.9777178,18.3580733 77.3663924,17.3750133 C74.4056532,15.5689264 72.8626526,12.1282165 73.3124572,8.60177468"></path> <path d="M90.2513016,16.8148978 L90.2513016,1.954689 C90.3993386,0.31435057 92.1871695,0.348643359 92.1416197,0.348643359 C92.7850111,0.360074289 93.3999339,0.394367078 94.1059563,1.29741053 C95.4838387,3.05777372 96.6681344,4.66953483 98.0118545,6.49276813 C100.443077,9.79059138 102.55545,12.6311774 104.906961,16.0261636 C105.248584,16.5176936 105.072079,17.0835246 104.895573,17.5693391 C104.599499,18.3695042 103.74544,18.7810177 102.959705,18.8267414 C102.64655,18.8496033 102.213827,18.7695868 101.923446,18.5009599 C101.120631,17.7236567 100.260878,16.3405142 99.3840432,15.1974212 C99.3783495,15.1974212 94.3792553,15.1631284 94.3735616,15.2088521 C94.3564804,15.3860315 94.322318,16.5577018 94.174281,17.3235741 C93.9408381,18.5181063 92.9216606,18.7181476 92.3864501,18.8153105 C92.3067378,18.8324569 92.4946309,18.8038795 92.3864501,18.8153105 C91.6405715,18.8667497 90.4164198,18.5066754 90.2456079,16.8206132 M96.2809608,11.1965958 C96.4802414,11.1908803 96.4403853,10.9794081 96.3720605,10.8936761 C95.6831193,9.96205533 95.0909714,9.12188199 94.3792553,8.17883028 C94.3621741,9.11045106 94.3337054,10.253544 94.3678678,11.2137421 C94.3678678,11.2480349 95.2219272,11.2137421 95.2447021,11.2137421 C95.4269015,11.1851648 95.9165622,11.2194576 96.2809608,11.1965958"></path> <path d="M1.62840655,2.17187666 C2.77284612,1.22310949 3.3536065,0.851604271 5.17559985,0.611554745 C6.71860046,0.405798008 8.07370801,1.05736101 8.2672948,1.12594659 C10.6928234,1.94325807 12.3326175,4.74955134 12.0080749,7.52726728 C11.8144881,9.17903664 10.8408604,10.670773 9.62809608,11.7452804 C10.8010043,14.3458169 12.9873963,16.04331 12.6400788,17.3350051 C12.4009422,18.2266176 12.1561118,18.4552362 11.3703772,18.7981641 C10.869329,19.0153517 10.1462254,18.9581971 9.73058321,18.6038383 C7.69792188,16.8663369 6.62180706,14.3572478 4.90799457,12.5625919 C4.48665861,12.1225011 4.29876555,12.3168269 4.29876555,12.5568764 C4.30445928,14.6601675 4.32154047,16.2262049 4.20766588,17.2549886 C4.14503486,17.8722588 3.56427448,18.5809764 3.16571344,18.7810177 C2.07251743,19.3297023 0.586454108,18.6667084 0.398561044,17.432168 C0.35870494,17.2092648 0.056937292,16.2547822 0.0398561044,11.9110289 C0.0341623752,9.76201406 0.0398561044,9.28763047 0.0398561044,5.86978246 C0.0455498336,4.46949356 0.706022421,2.9320335 1.62840655,2.17187666 M6.00688431,8.65892933 C7.1740988,8.65892933 8.11925784,7.7844632 8.11925784,6.70424033 C8.11925784,5.62401747 7.1740988,4.74383587 6.00688431,4.74383587 C4.83966982,4.74383587 3.89451078,5.618302 3.89451078,6.70424033 C3.89451078,7.7844632 4.83966982,8.65892933 6.00688431,8.65892933"></path> <path d="M139.063642,1.98898179 C139.063642,0.903043455 139.940476,0.0171463947 141.027979,0.0171463947 C142.115481,0.0171463947 142.992315,0.89732799 142.992315,1.98898179 L142.992315,2.00041272 L142.992315,16.4205307 L142.952459,17.0492318 C142.34323,19.0096363 140.270713,18.8267414 140.270713,18.8267414 C138.995317,18.8724651 138.369007,17.9694217 138.369007,17.9694217 L133.022595,8.35600969 C132.965658,8.26456225 132.806234,8.37887155 132.80054,8.47031899 L132.80054,17.0549473 C132.80054,18.1694629 131.900931,19.0782219 130.790654,19.0782219 C129.680376,19.0782219 128.775073,18.1694629 128.775073,17.0549473 L128.775073,2.90917164 C128.775073,2.48051177 128.991435,2.15473027 128.991435,2.15473027 C129.167941,1.82894877 129.469708,1.10308473 130.591373,0.62870114 C131.667488,0.177179412 133.22757,0.720148578 133.785555,1.63462296 C135.62463,4.65238843 137.150549,7.75588588 138.89283,10.7050658 C139.069336,10.7336431 139.057948,10.4421544 139.057948,10.4421544 L139.057948,1.98898179 L139.063642,1.98898179 Z"></path> <path d="M116.305806,1.98898179 C116.305806,0.903043455 117.182641,0.0171463947 118.270143,0.0171463947 C119.351952,0.0171463947 120.23448,0.89732799 120.23448,1.98898179 L120.23448,2.00041272 L120.23448,16.4205307 L120.194623,17.0492318 C119.585394,19.0096363 117.512877,18.8267414 117.512877,18.8267414 C116.231788,18.8724651 115.611171,17.9694217 115.611171,17.9694217 L110.259066,8.35600969 C110.207822,8.26456225 110.042704,8.37887155 110.037011,8.47031899 L110.037011,17.0549473 C110.037011,18.1694629 109.137401,19.0782219 108.027124,19.0782219 C106.916847,19.0782219 106.017238,18.1694629 106.017238,17.0549473 L106.017238,2.90917164 C106.017238,2.48051177 106.227906,2.15473027 106.227906,2.15473027 C106.410105,1.82894877 106.706179,1.10308473 107.827844,0.62870114 C108.903958,0.177179412 110.469734,0.720148578 111.027719,1.63462296 C112.8611,4.65238843 114.38702,7.75588588 116.123607,10.7050658 C116.305806,10.7336431 116.294419,10.4421544 116.294419,10.4421544 L116.294419,1.98898179 L116.305806,1.98898179 Z"></path> <path d="M126.651312,16.9349225 C126.651312,18.1123083 125.694766,19.0725064 124.521858,19.0725064 C123.348949,19.0725064 122.398097,18.1123083 122.398097,16.9349225 L122.398097,16.9234916 L122.398097,2.13186841 C122.398097,0.954482639 123.348949,0 124.521858,0 C125.694766,0 126.645619,0.954482639 126.645619,2.13186841 L126.645619,2.14329934 L126.645619,16.9349225 L126.651312,16.9349225 Z"></path>
            </g>
            <g transform="translate(44.468025, 0.000000)" id="Shape">
                <g transform="translate(9.223841, 18.803880)">
                    <path d="M1.61701909,8.03022819 C1.13305211,8.03022819 0.649085129,7.80732506 0.335930023,7.38438066 C-0.193586793,6.67566301 -0.0512435628,5.66402572 0.660472588,5.13248749 C4.9136883,1.9375426 11.4216208,0.0285773245 18.0662028,0.0285773245 L18.0662028,0.0285773245 C24.6880098,0.0285773245 31.1788611,1.9375426 35.4263831,5.13248749 C36.1380993,5.66402572 36.2804425,6.66994754 35.7452319,7.38438066 C35.2214089,8.09309831 34.2136188,8.24170039 33.5075964,7.71016216 C30.6379568,5.55543189 25.0751834,3.25209953 18.0662028,3.25209953 L18.0662028,3.25209953 C11.0230597,3.25209953 5.44889885,5.55543189 2.57925933,7.71016216 C2.28887914,7.92734982 1.95294912,8.03022819 1.61701909,8.03022819 L1.61701909,8.03022819 Z"></path> <path d="M3.0803075,10.7793668 C2.76715239,10.7793668 2.44830356,10.6421957 2.23194185,10.3792843 C1.85046199,9.91061615 1.91878674,9.21904489 2.38567254,8.83039328 C6.0638216,5.79548141 11.922669,3.9893945 18.0662028,3.9893945 C24.1755742,3.9893945 30.0230341,5.80119688 33.6954894,8.83039328 C34.1623752,9.21332943 34.2307,9.91061615 33.8492201,10.3792843 C33.4620465,10.8479524 32.7731053,10.916538 32.3062195,10.5336018 C29.0095503,7.81304053 23.6859135,6.18984849 18.060509,6.18984849 C12.4977356,6.18984849 7.02036811,7.85304878 3.77494246,10.5336018 C3.57566194,10.6936348 3.32513785,10.7793668 3.0803075,10.7793668 L3.0803075,10.7793668 Z"></path>
                </g>
                <g>
                    <path d="M3.7236989,6.44132895 C3.07461377,6.44132895 2.42552864,6.61850836 1.86184945,6.95572079 C1.01917753,7.4586817 0.415642232,8.25884679 0.170811876,9.21332943 C-0.0683247504,10.1678121 0.0683247504,11.1565875 0.56937292,12.0024763 C1.21845805,13.105561 2.42552864,13.7971323 3.71231144,13.8085632 L3.73508636,13.8085632 C4.38986522,13.8085632 5.03325662,13.6313838 5.59693581,13.2941714 C6.43960773,12.7912105 7.0374493,11.9910454 7.28227965,11.0422782 C7.52711001,10.0877956 7.38476678,9.09902013 6.88371861,8.25313132 C6.24032721,7.13861567 5.02186916,6.44132895 3.7236989,6.44132895 L3.7236989,6.44132895 Z"></path>
                    <g transform="translate(4.725795, 0.000000)">
                        <path d="M22.5414739,9.27619954 C20.5145063,9.27619954 18.8633249,10.9279689 18.8633249,12.9626744 C18.8633249,14.9973799 20.5145063,16.6491493 22.5414739,16.6491493 C24.5684415,16.6491493 26.2139293,14.9973799 26.2139293,12.9626744 C26.2082355,10.9336844 24.5627478,9.27619954 22.5414739,9.27619954 L22.5414739,9.27619954 Z"></path> <path d="M22.5414739,0.0514391842 C20.5145063,0.0514391842 18.8633249,1.70320854 18.8633249,3.73791405 C18.8633249,5.77261955 20.5145063,7.42438891 22.5414739,7.42438891 C24.5684415,7.42438891 26.2139293,5.77261955 26.2139293,3.73791405 C26.2082355,1.70320854 24.5627478,0.0514391842 22.5414739,0.0514391842 L22.5414739,0.0514391842 Z"></path> <path d="M12.7710346,10.5621791 C12.446492,10.5621791 12.1162557,10.6079029 11.7974069,10.6936348 C9.84445779,11.2308885 8.68863076,13.2598786 9.22384131,15.220283 C9.65656473,16.8034668 11.1027719,17.9179825 12.7482597,17.9294134 L12.8336656,17.9294134 C13.141127,17.9236979 13.4428946,17.8779742 13.7389686,17.7979577 C14.6841276,17.5407618 15.4698622,16.9234916 15.959523,16.0661719 C16.4434899,15.2088521 16.568752,14.2200767 16.3125342,13.2713095 C15.874117,11.6766948 14.4222161,10.5621791 12.7710346,10.5621791 L12.7710346,10.5621791 Z"></path> <path d="M3.67814907,14.3858252 C3.02337021,14.3858252 2.37997881,14.5630046 1.81629962,14.900217 C0.973627694,15.3974625 0.370092398,16.203343 0.125262042,17.1578256 C-0.113874584,18.1123083 0.0227749168,19.1067992 0.518129358,19.952688 C1.16721449,21.0557727 2.37428508,21.747344 3.66676161,21.7587749 L3.68953652,21.7587749 C4.34431538,21.7587749 4.98770678,21.5815955 5.5570797,21.2443831 C6.39975162,20.7414221 6.99759319,19.9412571 7.24242355,18.9867744 C7.4872539,18.0322918 7.34491067,17.0435163 6.84955623,16.1976275 C6.18908364,15.0831119 4.97631932,14.3858252 3.67814907,14.3858252 L3.67814907,14.3858252 Z"></path> <path d="M33.2741535,10.6936348 C32.9553046,10.6079029 32.6307621,10.5621791 32.3062195,10.5621791 C30.655038,10.5621791 29.2031371,11.6766948 28.7647199,13.277025 C28.2295094,15.2374294 29.3853364,17.2664195 31.3382855,17.8036732 C31.6571344,17.8894052 31.9816769,17.9351289 32.3119132,17.9351289 C33.957401,17.9351289 35.4149956,16.8206132 35.8534128,15.220283 C36.3829296,13.2598786 35.2271026,11.2308885 33.2741535,10.6936348 L33.2741535,10.6936348 Z"></path> <path d="M35.6996821,1.78894052 C35.3808333,1.70320854 35.0619844,1.65748482 34.7317481,1.65748482 C33.0805667,1.65748482 31.6286657,2.77200048 31.1902486,4.37233065 C30.655038,6.33273512 31.8108651,8.36172516 33.7638142,8.89897886 C34.082663,8.98471083 34.4072056,9.03043455 34.7317481,9.03043455 C36.3772359,9.03043455 37.8348306,7.91591889 38.2732477,6.31558872 C38.8084583,4.35518426 37.6526312,2.32619422 35.6996821,1.78894052 L35.6996821,1.78894052 Z"></path> <path d="M43.2552608,14.900217 C42.6915816,14.5630046 42.0424964,14.3858252 41.3934113,14.3858252 C40.1009348,14.3858252 38.8881705,15.0773964 38.2276979,16.1976275 C37.7266497,17.0435163 37.5900002,18.0380072 37.8291368,18.9867744 C38.0682735,19.9412571 38.6718088,20.7414221 39.5144807,21.2443831 C40.0838536,21.5815955 40.727245,21.7587749 41.3820239,21.7587749 C42.6745004,21.7587749 43.8872647,21.0672036 44.5420436,19.952688 C45.0430917,19.1067992 45.1797412,18.1123083 44.9349109,17.1578256 C44.701468,16.203343 44.0979327,15.4031779 43.2552608,14.900217 L43.2552608,14.900217 Z"></path> <path d="M49.6265437,9.21332943 C49.3817134,8.25884679 48.7838718,7.4586817 47.9411999,6.95572079 C47.3775207,6.61850836 46.7341293,6.44132895 46.0793504,6.44132895 C44.7868739,6.44132895 43.5741096,7.1329002 42.9193307,8.25313132 C42.4182826,9.09902013 42.2759393,10.093511 42.5207697,11.0479937 C42.7656,12.0024763 43.3634416,12.8026414 44.2061135,13.2998868 C44.7697927,13.6370993 45.4188779,13.8142787 46.0736567,13.8142787 C47.3661332,13.8142787 48.5788976,13.1227074 49.2393702,12.0024763 C49.7290309,11.1565875 49.8713741,10.1678121 49.6265437,9.21332943 L49.6265437,9.21332943 Z"></path> <path d="M10.345506,9.03043455 C10.6700485,9.03043455 11.0002848,8.98471083 11.3134399,8.89897886 C13.266389,8.36172516 14.4165223,6.33273512 13.8870055,4.37233065 C13.4542821,2.77200048 11.9966874,1.65748482 10.345506,1.65748482 C10.0209634,1.65748482 9.6907271,1.70320854 9.377572,1.78894052 C7.42462288,2.32619422 6.26879585,4.35518426 6.8040064,6.31558872 C7.23672982,7.8987725 8.68863076,9.01328816 10.3284248,9.02471909 L10.345506,9.03043455 L10.345506,9.03043455 Z"></path>
                    </g>
                </g>
            </g>
    </g>
</svg>