<?xml version="1.0" encoding="utf-8"?>
<!-- Generator: Adobe Illustrator 21.0.0, SVG Export Plug-In . SVG Version: 6.00 Build 0)  -->
<svg version="1.1" id="Layer_1" xmlns="http://www.w3.org/2000/svg" xmlns:xlink="http://www.w3.org/1999/xlink" x="0px" y="0px"
	 viewBox="0 0 576 765.6" style="enable-background:new 0 0 576 765.6;" xml:space="preserve">
<style type="text/css">
	.st0{fill:#444444;}
</style>
<g>
	<path class="st0" d="M287.1,765.6c-21.3,0.1-41.4-10.1-54.1-27.3C172.7,657.3,0,397.4,0,272.5C0,122.3,128.7,0,287.1,0
		s287.1,122.3,287.1,272.5c0,125.1-172.7,384.7-233,465.8C328.6,755.6,308.5,765.7,287.1,765.6z M287.1,47.9
		c-131.8,0-239.3,100.7-239.3,224.7c0,97.1,145.7,332.6,223.7,437.1c6.1,8.7,18,10.8,26.7,4.7c1.8-1.3,3.4-2.9,4.7-4.7
		c77.8-104.6,223.5-340.2,223.5-437.1C526.4,148.6,418.9,47.9,287.1,47.9z"/>
	<path class="st0" d="M287.1,406.7c-79.3,0-143.6-64.3-143.6-143.6s64.3-143.6,143.6-143.6s143.6,64.3,143.6,143.6
		S366.4,406.7,287.1,406.7z M287.1,167.5c-52.9,0-95.7,42.8-95.7,95.7s42.8,95.7,95.7,95.7s95.7-42.8,95.7-95.7
		S340,167.5,287.1,167.5z"/>
</g>
</svg>
