<?xml version="1.0" encoding="utf-8"?>
<!-- Generator: Adobe Illustrator 21.0.0, SVG Export Plug-In . SVG Version: 6.00 Build 0)  -->
<svg version="1.1" id="Layer_1" xmlns="http://www.w3.org/2000/svg" xmlns:xlink="http://www.w3.org/1999/xlink" x="0px" y="0px"
	 viewBox="0 0 99.8 78.8" style="enable-background:new 0 0 99.8 78.8;" xml:space="preserve">
<g>
	<g>
		<path d="M95.9,78.6H3.5C1.5,78.6,0,77,0,75V18.7c0-2,1.5-3.5,3.5-3.5h21.4l2.5-8.7C28.6,2.5,32,0,36,0h27.4c3.9,0,7.4,2.6,8.6,6.4
			l2.5,8.9h21.5c2,0,3.5,1.5,3.5,3.5v56.4C99.5,77,98,78.6,95.9,78.6z M7.1,71.5h85.4V22.2H71.8c-1.5,0-3-1.1-3.4-2.6L65.2,8.3
			C65,7.6,64.3,7,63.5,7H36c-0.8,0-1.5,0.5-1.8,1.3l-3.2,11.3c-0.5,1.5-1.8,2.6-3.4,2.6H7.1V71.5z"/>
	</g>
	<g>
		<path d="M49.7,66.3c-12.9,0-23.4-10.5-23.4-23.4s10.5-23.3,23.4-23.3S73.1,30.1,73.1,43S62.6,66.3,49.7,66.3z M49.7,26.7
			c-9,0-16.3,7.3-16.3,16.3s7.3,16.2,16.3,16.2s16.3-7.3,16.3-16.3S58.7,26.7,49.7,26.7z"/>
	</g>
</g>
</svg>
