<svg width="55px" height="30px" viewBox="0 0 55 30" version="1.1" xmlns="http://www.w3.org/2000/svg" xmlns:xlink="http://www.w3.org/1999/xlink">
    <!-- Generator: Sketch 48.1 (47250) - http://www.bohemiancoding.com/sketch -->
    <desc>Created with Sketch.</desc>
    <defs></defs>
    <g id="Page-1" stroke="none" stroke-width="1" fill="none" fill-rule="evenodd">
        <g id="favicon" fill="#E3051D" fill-rule="nonzero">
            <g transform="translate(0.468025, 0.000000)" id="Group">
                <g transform="translate(9.223841, 18.803880)">
                    <path d="M1.61701909,8.03022819 C1.13305211,8.03022819 0.649085129,7.80732506 0.335930023,7.38438066 C-0.193586793,6.67566301 -0.0512435628,5.66402572 0.660472588,5.13248749 C4.9136883,1.9375426 11.4216208,0.0285773245 18.0662028,0.0285773245 C24.6880098,0.0285773245 31.1788611,1.9375426 35.4263831,5.13248749 C36.1380993,5.66402572 36.2804425,6.66994754 35.7452319,7.38438066 C35.2214089,8.09309831 34.2136188,8.24170039 33.5075964,7.71016216 C30.6379568,5.55543189 25.0751834,3.25209953 18.0662028,3.25209953 C11.0230597,3.25209953 5.44889885,5.55543189 2.57925933,7.71016216 C2.28887914,7.92734982 1.95294912,8.03022819 1.61701909,8.03022819 Z" id="Shape"></path>
                    <path d="M3.0803075,10.7793668 C2.76715239,10.7793668 2.44830356,10.6421957 2.23194185,10.3792843 C1.85046199,9.91061615 1.91878674,9.21904489 2.38567254,8.83039328 C6.0638216,5.79548141 11.922669,3.9893945 18.0662028,3.9893945 C24.1755742,3.9893945 30.0230341,5.80119688 33.6954894,8.83039328 C34.1623752,9.21332943 34.2307,9.91061615 33.8492201,10.3792843 C33.4620465,10.8479524 32.7731053,10.916538 32.3062195,10.5336018 C29.0095503,7.81304053 23.6859135,6.18984849 18.060509,6.18984849 C12.4977356,6.18984849 7.02036811,7.85304878 3.77494246,10.5336018 C3.57566194,10.6936348 3.32513785,10.7793668 3.0803075,10.7793668 Z" id="Shape"></path>
                </g>
                <g>
                    <path d="M3.7236989,6.44132895 C3.07461377,6.44132895 2.42552864,6.61850836 1.86184945,6.95572079 C1.01917753,7.4586817 0.415642232,8.25884679 0.170811876,9.21332943 C-0.0683247504,10.1678121 0.0683247504,11.1565875 0.56937292,12.0024763 C1.21845805,13.105561 2.42552864,13.7971323 3.71231144,13.8085632 L3.73508636,13.8085632 C4.38986522,13.8085632 5.03325662,13.6313838 5.59693581,13.2941714 C6.43960773,12.7912105 7.0374493,11.9910454 7.28227965,11.0422782 C7.52711001,10.0877956 7.38476678,9.09902013 6.88371861,8.25313132 C6.24032721,7.13861567 5.02186916,6.44132895 3.7236989,6.44132895 Z" id="Shape"></path>
                    <g transform="translate(4.725795, 0.000000)" id="Shape">
                        <path d="M22.5414739,9.27619954 C20.5145063,9.27619954 18.8633249,10.9279689 18.8633249,12.9626744 C18.8633249,14.9973799 20.5145063,16.6491493 22.5414739,16.6491493 C24.5684415,16.6491493 26.2139293,14.9973799 26.2139293,12.9626744 C26.2082355,10.9336844 24.5627478,9.27619954 22.5414739,9.27619954 Z"></path>
                        <path d="M22.5414739,0.0514391842 C20.5145063,0.0514391842 18.8633249,1.70320854 18.8633249,3.73791405 C18.8633249,5.77261955 20.5145063,7.42438891 22.5414739,7.42438891 C24.5684415,7.42438891 26.2139293,5.77261955 26.2139293,3.73791405 C26.2082355,1.70320854 24.5627478,0.0514391842 22.5414739,0.0514391842 Z"></path>
                        <path d="M12.7710346,10.5621791 C12.446492,10.5621791 12.1162557,10.6079029 11.7974069,10.6936348 C9.84445779,11.2308885 8.68863076,13.2598786 9.22384131,15.220283 C9.65656473,16.8034668 11.1027719,17.9179825 12.7482597,17.9294134 L12.8336656,17.9294134 C13.141127,17.9236979 13.4428946,17.8779742 13.7389686,17.7979577 C14.6841276,17.5407618 15.4698622,16.9234916 15.959523,16.0661719 C16.4434899,15.2088521 16.568752,14.2200767 16.3125342,13.2713095 C15.874117,11.6766948 14.4222161,10.5621791 12.7710346,10.5621791 Z"></path>
                        <path d="M3.67814907,14.3858252 C3.02337021,14.3858252 2.37997881,14.5630046 1.81629962,14.900217 C0.973627694,15.3974625 0.370092398,16.203343 0.125262042,17.1578256 C-0.113874584,18.1123083 0.0227749168,19.1067992 0.518129358,19.952688 C1.16721449,21.0557727 2.37428508,21.747344 3.66676161,21.7587749 L3.68953652,21.7587749 C4.34431538,21.7587749 4.98770678,21.5815955 5.5570797,21.2443831 C6.39975162,20.7414221 6.99759319,19.9412571 7.24242355,18.9867744 C7.4872539,18.0322918 7.34491067,17.0435163 6.84955623,16.1976275 C6.18908364,15.0831119 4.97631932,14.3858252 3.67814907,14.3858252 Z"></path>
                        <path d="M33.2741535,10.6936348 C32.9553046,10.6079029 32.6307621,10.5621791 32.3062195,10.5621791 C30.655038,10.5621791 29.2031371,11.6766948 28.7647199,13.277025 C28.2295094,15.2374294 29.3853364,17.2664195 31.3382855,17.8036732 C31.6571344,17.8894052 31.9816769,17.9351289 32.3119132,17.9351289 C33.957401,17.9351289 35.4149956,16.8206132 35.8534128,15.220283 C36.3829296,13.2598786 35.2271026,11.2308885 33.2741535,10.6936348 Z"></path>
                        <path d="M35.6996821,1.78894052 C35.3808333,1.70320854 35.0619844,1.65748482 34.7317481,1.65748482 C33.0805667,1.65748482 31.6286657,2.77200048 31.1902486,4.37233065 C30.655038,6.33273512 31.8108651,8.36172516 33.7638142,8.89897886 C34.082663,8.98471083 34.4072056,9.03043455 34.7317481,9.03043455 C36.3772359,9.03043455 37.8348306,7.91591889 38.2732477,6.31558872 C38.8084583,4.35518426 37.6526312,2.32619422 35.6996821,1.78894052 Z"></path>
                        <path d="M43.2552608,14.900217 C42.6915816,14.5630046 42.0424964,14.3858252 41.3934113,14.3858252 C40.1009348,14.3858252 38.8881705,15.0773964 38.2276979,16.1976275 C37.7266497,17.0435163 37.5900002,18.0380072 37.8291368,18.9867744 C38.0682735,19.9412571 38.6718088,20.7414221 39.5144807,21.2443831 C40.0838536,21.5815955 40.727245,21.7587749 41.3820239,21.7587749 C42.6745004,21.7587749 43.8872647,21.0672036 44.5420436,19.952688 C45.0430917,19.1067992 45.1797412,18.1123083 44.9349109,17.1578256 C44.701468,16.203343 44.0979327,15.4031779 43.2552608,14.900217 Z"></path>
                        <path d="M49.6265437,9.21332943 C49.3817134,8.25884679 48.7838718,7.4586817 47.9411999,6.95572079 C47.3775207,6.61850836 46.7341293,6.44132895 46.0793504,6.44132895 C44.7868739,6.44132895 43.5741096,7.1329002 42.9193307,8.25313132 C42.4182826,9.09902013 42.2759393,10.093511 42.5207697,11.0479937 C42.7656,12.0024763 43.3634416,12.8026414 44.2061135,13.2998868 C44.7697927,13.6370993 45.4188779,13.8142787 46.0736567,13.8142787 C47.3661332,13.8142787 48.5788976,13.1227074 49.2393702,12.0024763 C49.7290309,11.1565875 49.8713741,10.1678121 49.6265437,9.21332943 Z"></path>
                        <path d="M10.345506,9.03043455 C10.6700485,9.03043455 11.0002848,8.98471083 11.3134399,8.89897886 C13.266389,8.36172516 14.4165223,6.33273512 13.8870055,4.37233065 C13.4542821,2.77200048 11.9966874,1.65748482 10.345506,1.65748482 C10.0209634,1.65748482 9.6907271,1.70320854 9.377572,1.78894052 C7.42462288,2.32619422 6.26879585,4.35518426 6.8040064,6.31558872 C7.23672982,7.8987725 8.68863076,9.01328816 10.3284248,9.02471909 L10.345506,9.03043455 Z"></path>
                    </g>
                </g>
            </g>
        </g>
    </g>
</svg>