<?xml version="1.0" encoding="utf-8"?>
<!-- Generator: Adobe Illustrator 21.0.0, SVG Export Plug-In . SVG Version: 6.00 Build 0)  -->
<svg version="1.1" id="youtube--small--red" xmlns="http://www.w3.org/2000/svg" xmlns:xlink="http://www.w3.org/1999/xlink"
	 x="0px" y="0px" viewBox="0 0 768 768" style="enable-background:new 0 0 768 768;" xml:space="preserve">
<style type="text/css">
	.st0{fill:#444444;}
</style>
<g>
	<path class="st0" d="M690.6,285.8H547.7V71.4c0-39.5-32-71.4-71.4-71.4H71.4C32,0,0,32,0,71.4v238.1C0,349,32,381,71.4,381h23.8
		v37.9c0.1,26.3,21.5,47.5,47.8,47.4c12.5-0.1,24.5-5,33.4-13.8l37.9-37.9v180.7c0,39.5,32,71.4,71.4,71.4h180.7l71.4,71.4
		c18.7,18.5,48.8,18.5,67.4-0.2c8.8-8.9,13.8-20.9,13.8-33.4v-37.9h71.4c39.5,0,71.4-32,71.4-71.4V357.2
		C762,317.7,730,285.8,690.6,285.8z M142.9,418.9V381c0-26.3-21.3-47.6-47.6-47.6H71.4c-13.2,0-23.8-10.7-23.8-23.8V71.4
		c0-13.2,10.7-23.8,23.8-23.8h404.8c13.2,0,23.8,10.7,23.8,23.8v214.3H285.8c-35.5-0.4-66,25.4-71.4,60.5L142.9,418.9z M714.4,595.3
		c0,13.2-10.7,23.8-23.8,23.8h-71.4c-26.3,0-47.6,21.3-47.6,47.6v37.9l-71.4-71.4c-8.9-8.9-21-14-33.6-14H285.8
		c-13.2,0-23.8-10.7-23.8-23.8V357.2c0-13.2,10.7-23.8,23.8-23.8h404.8c13.2,0,23.8,10.7,23.8,23.8V595.3z"/>
	<path class="st0" d="M619.1,500.1H357.2c-13.2,0-23.8-10.7-23.8-23.8s10.7-23.8,23.8-23.8h261.9c13.2,0,23.8,10.7,23.8,23.8
		S632.3,500.1,619.1,500.1z M404.8,214.3H142.9c-13.2,0-23.8-10.7-23.8-23.8c0-13.2,10.7-23.8,23.8-23.8h261.9
		c13.2,0,23.8,10.7,23.8,23.8C428.6,203.7,418,214.3,404.8,214.3z"/>
</g>
</svg>
