<?xml version="1.0" standalone="no"?>
<!DOCTYPE svg PUBLIC "-//W3C//DTD SVG 20010904//EN"
 "http://www.w3.org/TR/2001/REC-SVG-20010904/DTD/svg10.dtd">
<svg version="1.0" xmlns="http://www.w3.org/2000/svg"
 width="1760.000000pt" height="1760.000000pt" viewBox="0 0 1760.000000 1760.000000"
 preserveAspectRatio="xMidYMid meet">
<metadata>
Created by potrace 1.11, written by Peter Selinger 2001-2013
</metadata>
<g transform="translate(0.000000,1760.000000) scale(0.100000,-0.100000)"
fill="#000000" stroke="none">
<path d="M8810 13582 c-195 -15 -367 -68 -540 -167 -137 -78 -311 -252 -398
-395 -36 -61 -92 -179 -92 -195 0 -8 -4 -15 -10 -15 -5 0 -9 -3 -9 -7 1 -5 0
-10 -1 -13 -1 -3 -3 -12 -5 -20 -1 -8 -10 -44 -20 -80 -9 -36 -20 -85 -23
-110 -9 -60 -7 -315 2 -365 4 -22 8 -50 9 -62 1 -13 5 -23 8 -23 3 0 6 -6 7
-12 0 -7 3 -23 6 -35 3 -13 8 -31 10 -40 19 -78 147 -323 169 -323 4 0 7 -6 7
-13 0 -6 17 -31 38 -53 20 -23 46 -52 58 -65 26 -30 130 -121 152 -133 9 -5
26 -18 36 -28 11 -10 26 -18 33 -18 7 0 13 -4 13 -8 0 -5 33 -24 73 -43 39
-19 74 -37 75 -41 2 -5 14 -8 26 -8 12 0 26 -4 31 -8 12 -10 71 -29 107 -36
15 -2 33 -8 39 -12 6 -3 23 -8 38 -10 14 -1 51 -6 81 -10 71 -8 221 -9 285 -1
42 6 100 18 198 42 38 9 129 46 190 76 167 85 348 245 444 394 29 44 57 86 63
93 6 6 8 12 5 12 -2 0 8 26 24 57 16 31 27 61 25 65 -3 4 -1 8 3 8 8 0 25 49
38 105 2 11 9 39 15 63 21 86 24 120 24 252 0 130 -4 178 -25 265 -5 22 -12
49 -14 60 -35 150 -161 368 -290 499 -81 83 -246 211 -251 195 -1 -2 -10 3
-20 12 -18 15 -108 61 -129 66 -5 1 -42 13 -81 27 -111 40 -309 67 -424 58z"/>
<path d="M4848 13065 c-2 -3 -26 -7 -54 -10 -27 -4 -74 -13 -104 -22 -30 -9
-60 -18 -67 -19 -53 -9 -201 -78 -271 -125 -24 -16 -47 -29 -52 -29 -4 0 -10
-3 -12 -8 -1 -4 -23 -23 -48 -42 -46 -36 -190 -180 -190 -191 0 -3 -11 -19
-25 -35 -14 -16 -25 -35 -25 -41 0 -7 -4 -13 -8 -13 -5 0 -15 -12 -22 -27 -8
-16 -19 -35 -25 -43 -7 -8 -26 -51 -45 -95 -18 -44 -36 -87 -40 -95 -4 -9 -11
-31 -16 -50 -4 -19 -9 -38 -10 -42 -1 -5 -3 -10 -4 -13 -1 -3 -3 -13 -4 -22
-1 -10 -5 -31 -9 -48 -15 -69 -25 -212 -16 -227 4 -5 3 -25 -1 -44 -4 -19 -5
-34 -1 -34 4 0 8 -15 9 -32 1 -36 8 -81 23 -143 5 -22 11 -48 14 -58 2 -9 7
-22 10 -27 3 -5 8 -19 10 -30 7 -36 81 -185 128 -255 92 -140 199 -246 342
-341 55 -36 167 -95 180 -94 3 0 20 -7 38 -16 17 -10 46 -21 62 -25 104 -28
155 -40 195 -45 94 -14 373 -6 400 11 4 2 22 7 41 10 19 3 50 11 69 19 19 7
62 24 95 36 33 13 63 28 66 33 3 5 10 8 15 8 17 -1 44 10 44 20 0 5 6 9 13 9
8 0 33 14 55 30 23 17 46 30 52 30 5 0 10 5 10 10 0 6 8 14 18 17 32 13 199
188 249 263 76 113 161 298 166 359 1 12 5 21 10 21 4 0 6 4 3 9 -3 4 -1 23 4
42 15 50 24 152 23 249 -1 130 -8 184 -38 305 -1 6 -2 12 -3 15 0 3 -7 22 -15
43 -9 20 -14 37 -11 37 3 0 -1 12 -9 28 -8 15 -30 56 -48 92 -83 166 -184 288
-336 407 -129 101 -334 195 -478 218 -11 2 -20 4 -20 5 0 9 -329 23 -337 15z"/>
<path d="M12658 13065 c-2 -2 -28 -6 -58 -10 -134 -16 -345 -96 -447 -168 -29
-20 -57 -37 -62 -37 -5 0 -11 -3 -13 -8 -1 -4 -16 -18 -33 -30 -28 -22 -113
-103 -154 -147 -55 -60 -144 -198 -177 -275 -8 -19 -21 -47 -29 -61 -8 -14
-12 -29 -8 -33 3 -3 0 -6 -7 -6 -7 0 -11 -2 -8 -6 3 -3 -1 -26 -9 -52 -16 -53
-19 -67 -37 -167 -9 -54 -15 -330 -6 -330 2 0 9 -34 15 -76 3 -20 11 -55 19
-78 9 -22 13 -41 11 -41 -13 0 95 -230 138 -292 91 -134 225 -278 258 -278 5
0 8 -4 4 -9 -3 -5 4 -12 15 -16 11 -3 32 -17 48 -29 15 -12 47 -34 72 -47 25
-13 47 -27 48 -31 2 -5 10 -8 17 -8 18 0 89 -32 93 -43 2 -4 8 -5 12 -2 5 3
17 1 27 -4 32 -18 119 -41 215 -58 47 -9 296 -9 343 0 76 13 100 18 140 29 52
15 46 13 78 26 15 7 39 15 52 18 14 3 25 10 25 16 0 5 5 6 10 3 6 -3 22 3 38
13 15 11 30 20 35 21 8 1 48 24 89 52 15 11 30 19 33 19 3 0 13 8 23 18 10 9
33 28 52 42 42 32 122 111 169 170 20 25 39 46 44 48 4 2 7 8 7 13 0 5 16 34
36 65 42 65 101 192 108 230 3 14 9 31 15 37 5 7 9 15 9 20 1 4 6 33 13 65 7
31 13 66 13 77 1 11 4 25 8 31 12 18 0 369 -12 369 -1 0 -3 9 -5 20 -9 63 -40
160 -80 250 -13 30 -25 59 -25 63 -1 4 -7 14 -14 22 -7 8 -24 34 -36 58 -13
23 -27 42 -32 42 -4 0 -8 7 -8 15 0 8 -4 15 -10 15 -5 0 -10 4 -10 9 0 36
-279 291 -318 291 -7 0 -12 5 -12 10 0 6 -5 10 -11 10 -6 0 -24 9 -40 21 -16
11 -29 17 -29 13 0 -3 -6 -1 -13 5 -12 9 -133 58 -162 66 -5 1 -17 5 -25 8
-27 10 -77 21 -142 32 -43 7 -294 15 -300 10z"/>
<path d="M1238 11535 c-1 -1 -28 -6 -58 -9 -89 -9 -289 -70 -327 -99 -7 -5
-13 -7 -13 -3 0 3 -18 -5 -40 -19 -22 -14 -44 -25 -50 -25 -5 0 -10 -4 -10
-10 0 -5 -7 -10 -15 -10 -8 0 -15 -4 -15 -10 0 -5 -5 -10 -11 -10 -15 0 -134
-95 -189 -152 -61 -63 -90 -97 -125 -149 -16 -24 -32 -46 -35 -49 -3 -3 -26
-46 -52 -97 -41 -79 -82 -189 -93 -250 -2 -10 -4 -18 -5 -18 -1 0 -4 -9 -6
-20 -26 -116 -26 -377 0 -490 11 -44 19 -86 19 -92 0 -7 4 -13 9 -13 4 0 8 -9
8 -20 0 -21 24 -80 68 -165 38 -75 46 -88 59 -103 7 -7 13 -17 13 -22 0 -5 6
-15 13 -22 6 -7 24 -30 40 -50 41 -56 125 -137 197 -193 36 -28 67 -52 70 -55
10 -10 86 -51 155 -84 74 -35 208 -81 263 -91 17 -3 47 -8 65 -12 44 -9 303
-8 351 1 21 4 48 9 60 12 49 9 136 37 201 66 39 16 75 31 80 32 18 3 169 101
210 136 94 79 235 234 235 259 0 6 5 11 10 11 6 0 10 7 10 15 0 8 4 15 9 15 5
0 13 10 17 23 3 12 12 29 18 37 15 18 68 145 90 212 34 104 50 221 49 358 -1
81 -8 185 -13 185 -1 0 -3 12 -5 26 -2 14 -9 45 -16 70 -17 60 -17 61 -23 88
-3 14 -10 29 -16 35 -5 5 -10 18 -10 28 0 10 -5 18 -12 18 -6 0 -8 3 -5 6 6 6
-23 66 -74 154 -62 107 -208 264 -319 342 -117 83 -325 174 -440 192 -19 3
-46 8 -60 12 -27 6 -276 15 -282 9z"/>
<path d="M16288 11535 c-2 -2 -15 -5 -30 -7 -15 -2 -30 -7 -34 -10 -3 -4 -12
-4 -19 -2 -15 6 -167 -33 -204 -52 -13 -7 -28 -11 -33 -8 -4 3 -8 0 -8 -6 0
-7 -7 -10 -15 -6 -8 3 -15 2 -15 -2 0 -5 -19 -16 -42 -27 -158 -68 -374 -260
-467 -415 -62 -105 -137 -272 -147 -329 -3 -14 -9 -43 -15 -64 -6 -21 -13 -55
-15 -75 -8 -53 -12 -305 -5 -317 3 -5 7 -21 8 -35 20 -165 122 -410 221 -531
78 -97 136 -156 199 -207 38 -30 161 -112 169 -112 3 0 19 -9 35 -21 16 -11
29 -17 29 -13 0 3 6 1 13 -5 30 -24 150 -63 302 -97 11 -3 36 -5 55 -5 19 -1
43 -5 53 -10 9 -5 17 -6 17 -2 0 9 74 8 89 -2 6 -3 11 -3 11 2 0 4 19 8 42 7
24 0 71 5 105 11 35 7 63 10 63 7 0 -2 6 1 13 7 8 6 16 8 19 6 3 -3 18 -1 34
6 16 6 36 12 44 14 61 14 276 120 307 151 8 8 24 19 35 25 52 28 184 161 253
254 49 66 132 219 149 275 5 14 10 31 12 38 2 6 5 18 7 25 1 6 5 17 9 22 5 9
9 26 23 95 17 83 25 192 20 287 -8 145 -10 161 -18 169 -4 4 -7 21 -7 39 0 17
-5 36 -12 43 -7 7 -9 12 -6 12 15 0 -68 212 -101 259 -10 14 -20 31 -21 36 -2
9 -51 84 -72 110 -97 121 -159 179 -282 263 -137 93 -271 148 -461 187 -33 7
-301 16 -307 10z"/>
<path d="M8728 10625 c-2 -3 -22 -7 -44 -10 -44 -7 -151 -33 -174 -42 -8 -3
-20 -7 -26 -8 -55 -12 -266 -127 -314 -172 -14 -13 -28 -23 -32 -23 -24 0
-215 -216 -254 -285 -6 -11 -27 -48 -47 -82 -20 -35 -34 -63 -31 -63 3 0 -2
-10 -10 -22 -9 -12 -16 -30 -16 -40 0 -10 -4 -18 -8 -18 -5 0 -9 -6 -10 -12
-1 -15 -10 -53 -12 -53 -1 0 -3 -11 -6 -25 -2 -14 -7 -32 -11 -40 -3 -8 -7
-23 -8 -32 -2 -10 -3 -19 -5 -20 -7 -9 -14 -121 -15 -228 0 -130 4 -169 29
-285 10 -43 46 -146 71 -202 83 -182 220 -348 381 -464 38 -27 74 -52 79 -57
52 -41 288 -133 348 -136 9 0 17 -3 17 -7 0 -3 12 -7 28 -7 15 -1 41 -4 57 -8
40 -7 267 -12 279 -6 5 3 23 7 40 8 47 4 131 20 131 24 0 1 11 4 25 6 67 12
300 119 300 137 0 6 3 8 6 4 17 -17 304 240 304 272 0 5 4 11 9 13 20 8 143
223 153 268 2 8 6 17 9 20 6 6 36 101 44 140 27 129 32 176 30 293 -2 140 -8
193 -30 269 -7 25 -11 49 -8 52 4 3 1 6 -6 6 -7 0 -10 4 -6 9 3 5 1 12 -5 16
-6 4 -8 10 -5 15 3 5 -1 21 -10 34 -9 14 -17 29 -17 33 -1 17 -18 54 -57 123
-22 38 -38 70 -35 70 2 0 -4 8 -13 18 -10 11 -27 32 -38 48 -44 63 -165 187
-219 223 -11 8 -23 18 -26 22 -9 12 -114 76 -175 106 -52 27 -147 62 -250 93
-16 5 -48 12 -70 16 -48 8 -340 15 -347 9z"/>
<path d="M5747 10224 c-3 -4 -39 -8 -79 -9 -180 -7 -377 -71 -544 -176 -92
-58 -94 -60 -204 -169 -88 -87 -176 -206 -222 -300 -23 -46 -59 -131 -63 -150
-3 -8 -11 -40 -20 -70 -9 -30 -18 -66 -19 -80 -1 -14 -4 -30 -7 -35 -8 -15
-13 -91 -12 -200 1 -86 8 -200 13 -200 1 0 3 -8 5 -17 16 -85 31 -135 61 -211
36 -89 100 -209 116 -215 4 -2 8 -8 8 -14 0 -16 69 -98 149 -178 309 -305 755
-411 1181 -279 71 22 259 112 287 138 10 9 31 24 47 35 54 35 154 130 211 201
168 209 254 441 268 718 2 26 0 47 -3 47 -3 0 -4 27 -4 59 2 55 -7 119 -30
216 -2 8 -20 69 -31 105 -21 69 -114 243 -154 289 -12 13 -21 27 -21 31 0 9
-156 169 -200 203 -19 16 -47 36 -62 45 -16 9 -28 20 -28 25 0 4 -4 5 -10 2
-5 -3 -10 -2 -10 3 0 6 -12 15 -27 21 -16 6 -35 15 -43 21 -67 44 -317 129
-340 115 -5 -3 -10 -2 -10 3 0 5 -6 9 -12 9 -61 3 -172 14 -178 18 -4 2 -10 2
-13 -1z"/>
<path d="M11899 10216 c-2 -2 -32 -7 -67 -10 -34 -4 -73 -11 -87 -16 -14 -5
-25 -7 -25 -5 0 7 -171 -54 -225 -81 -85 -42 -131 -69 -165 -97 -17 -15 -36
-27 -41 -27 -15 0 -229 -220 -229 -235 0 -7 -4 -15 -8 -17 -11 -4 -74 -104
-98 -153 -10 -22 -23 -43 -28 -47 -6 -4 -7 -8 -3 -8 4 0 2 -10 -5 -22 -7 -13
-13 -25 -13 -28 -1 -3 -11 -36 -23 -74 -24 -76 -28 -94 -45 -211 -20 -130 -10
-305 24 -429 6 -22 13 -48 14 -56 2 -8 4 -16 5 -17 2 -2 3 -6 5 -10 2 -11 14
-42 27 -73 5 -14 10 -27 10 -30 1 -8 70 -133 90 -162 10 -14 18 -29 18 -32 0
-6 23 -36 48 -61 6 -8 12 -16 12 -19 0 -7 134 -140 171 -171 137 -114 331
-205 514 -241 11 -2 31 -7 45 -10 52 -12 287 -11 365 2 99 17 262 68 329 105
138 73 115 59 206 130 36 28 88 74 116 102 65 67 174 208 168 219 -3 4 -1 8 4
8 4 0 14 16 22 35 8 19 17 35 22 35 4 0 7 3 6 8 -1 4 8 27 19 52 21 45 33 78
33 93 0 4 7 21 16 38 8 17 13 37 10 45 -3 7 -1 16 3 19 9 5 23 77 25 125 1 14
4 30 7 35 6 11 3 224 -4 265 -15 92 -48 222 -67 265 -87 196 -146 289 -278
428 -106 113 -324 240 -497 291 -45 13 -93 24 -105 25 -8 0 -28 3 -45 7 -35 7
-270 16 -276 10z"/>
<path d="M2715 8989 c-110 -14 -149 -22 -234 -51 -36 -12 -69 -21 -73 -20 -5
1 -8 -2 -8 -8 0 -5 -4 -9 -8 -7 -7 2 -142 -62 -152 -73 -7 -7 -42 -29 -60 -37
-8 -4 -17 -9 -20 -12 -3 -4 -30 -26 -60 -51 -204 -165 -352 -408 -406 -664
-22 -104 -25 -140 -25 -251 1 -129 10 -206 34 -290 6 -22 11 -45 12 -52 0 -6
4 -15 8 -19 4 -4 7 -13 7 -19 0 -7 8 -30 17 -51 9 -22 16 -42 15 -46 -1 -5 2
-8 8 -8 6 0 9 -3 8 -7 -4 -12 54 -121 75 -144 10 -10 15 -19 12 -19 -7 0 41
-63 90 -119 50 -57 107 -111 165 -154 30 -23 57 -44 60 -47 30 -30 269 -141
332 -154 7 -2 20 -6 28 -9 24 -11 173 -34 203 -32 15 0 27 -2 27 -7 0 -4 11
-3 25 2 14 5 25 6 25 1 0 -4 17 -6 38 -5 20 2 66 6 102 8 63 5 93 9 128 20 9
3 28 7 42 10 35 6 151 46 175 59 11 6 22 12 25 12 28 5 201 113 263 164 76 64
227 237 227 260 0 6 4 11 9 11 5 0 14 12 20 28 6 15 21 45 34 67 38 70 111
267 106 291 -1 5 0 12 1 17 1 4 4 12 5 17 1 6 3 11 5 13 13 16 17 257 6 347
-5 36 -9 75 -10 88 0 12 -4 22 -7 22 -4 0 -7 10 -7 23 0 56 -131 357 -155 357
-6 0 -7 3 -4 6 4 4 -4 19 -16 34 -12 16 -33 43 -47 61 -31 42 -157 167 -195
194 -16 11 -34 26 -41 33 -7 6 -16 12 -20 12 -4 0 -15 6 -23 14 -53 45 -258
134 -374 161 -121 28 -276 37 -392 24z"/>
<path d="M14818 8995 c-2 -2 -27 -6 -56 -9 -45 -5 -98 -16 -157 -30 -45 -12
-72 -20 -80 -25 -5 -3 -16 -6 -23 -7 -30 -5 -193 -91 -267 -142 -97 -66 -233
-203 -298 -299 -26 -39 -65 -111 -88 -160 -22 -48 -44 -95 -49 -103 -4 -9 -11
-31 -16 -50 -4 -19 -9 -38 -10 -42 -1 -5 -3 -10 -4 -13 -1 -3 -4 -9 -5 -15 -1
-5 -3 -11 -5 -12 -2 -3 -4 -15 -16 -98 -9 -64 -9 -299 0 -350 8 -49 23 -115
26 -115 1 0 3 -9 5 -20 15 -92 96 -262 181 -382 46 -64 196 -223 211 -223 4 0
23 -14 41 -31 17 -16 32 -27 32 -24 0 3 15 -5 33 -19 87 -67 288 -147 426
-171 77 -13 259 -24 275 -16 5 2 33 6 62 7 101 6 349 81 394 120 8 7 19 12 23
12 13 -1 77 36 77 44 0 5 5 8 12 8 30 0 216 167 278 249 14 18 30 38 35 44 14
17 65 96 65 101 0 3 13 28 30 56 16 27 27 50 24 50 -4 0 -2 6 4 13 12 15 62
157 68 195 2 15 7 38 11 52 24 94 24 285 -1 450 -17 114 -115 362 -166 418 -8
9 -22 30 -30 46 -22 42 -186 208 -255 258 -126 92 -284 169 -392 193 -134 30
-185 37 -280 39 -62 2 -114 2 -115 1z"/>
<path d="M8858 7574 c-2 -1 -115 -5 -253 -8 -307 -7 -402 -12 -650 -32 -33 -3
-76 -6 -95 -8 -20 -1 -41 -5 -47 -9 -6 -4 -14 -3 -18 3 -4 6 -12 7 -18 3 -7
-4 -25 -8 -42 -9 -16 -1 -55 -5 -85 -9 -30 -4 -71 -9 -90 -10 -19 -2 -52 -6
-74 -9 -68 -10 -115 -16 -158 -21 -24 -3 -68 -10 -98 -15 -61 -11 -110 -18
-155 -24 -27 -3 -75 -11 -130 -21 -11 -2 -20 -4 -20 -5 0 -1 -13 -3 -30 -5
-16 -1 -30 -3 -30 -4 0 -2 -9 -4 -20 -6 -11 -2 -36 -7 -55 -10 -19 -4 -46 -9
-60 -12 -68 -12 -275 -57 -350 -75 -47 -11 -92 -22 -100 -23 -8 -1 -23 -5 -32
-9 -9 -4 -22 -5 -28 -1 -5 3 -10 2 -10 -3 0 -5 -6 -9 -12 -9 -7 0 -33 -6 -58
-12 -25 -7 -52 -14 -60 -16 -8 -2 -15 -4 -15 -5 0 -1 -7 -3 -16 -5 -9 -1 -43
-11 -75 -20 -33 -9 -67 -19 -77 -21 -37 -7 -193 -55 -209 -64 -10 -6 -23 -10
-30 -10 -12 0 -216 -63 -248 -77 -8 -3 -19 -7 -25 -9 -14 -4 -207 -73 -225
-81 -8 -3 -17 -7 -20 -7 -8 -2 -72 -26 -100 -39 -14 -6 -27 -11 -30 -11 -13
-3 -273 -112 -340 -144 -41 -19 -81 -35 -87 -35 -7 0 -13 -4 -13 -8 0 -4 -10
-11 -22 -15 -44 -14 -173 -76 -176 -85 -2 -5 -10 -9 -17 -9 -12 0 -152 -70
-250 -125 -22 -12 -87 -48 -145 -80 -58 -33 -107 -62 -110 -65 -3 -4 -30 -21
-60 -38 -61 -36 -89 -53 -104 -65 -6 -4 -47 -31 -91 -60 -131 -87 -180 -121
-185 -127 -3 -3 -18 -14 -33 -23 -145 -93 -245 -237 -264 -380 -22 -170 31
-330 148 -446 50 -50 167 -120 206 -124 4 0 26 -6 48 -12 46 -14 213 -10 233
5 1 2 5 3 10 4 43 8 149 62 192 98 44 38 338 230 455 297 148 85 173 99 275
151 58 30 108 58 111 63 3 5 8 8 10 6 4 -2 43 15 164 71 33 15 103 47 155 70
52 23 118 52 146 65 28 13 60 25 70 27 11 2 21 5 24 8 3 3 21 11 40 17 19 6
82 30 140 52 58 23 112 43 120 44 8 1 20 5 25 8 9 6 110 41 128 45 4 1 9 3 12
4 3 1 8 3 13 5 4 1 14 4 22 8 18 6 151 48 165 51 6 2 30 9 55 16 59 18 72 21
88 22 6 1 12 4 12 8 0 4 6 7 13 8 18 1 56 10 65 15 4 3 24 8 46 11 21 4 43 9
49 13 7 4 18 8 27 9 8 0 35 7 60 14 25 6 52 14 60 16 8 2 33 8 55 14 22 6 55
13 74 15 18 3 37 8 43 11 5 3 20 8 34 10 27 4 57 10 94 18 101 23 122 27 143
29 9 1 17 4 17 7 0 3 15 5 33 6 17 1 94 13 171 27 76 14 141 26 145 25 3 -1
17 1 31 5 14 3 48 9 75 12 28 3 61 8 75 9 14 2 50 7 80 12 30 4 64 8 75 9 11
0 25 3 30 6 6 2 27 4 48 4 20 -1 37 1 37 5 0 3 21 5 48 6 26 1 74 4 107 8 58
6 154 14 260 21 28 2 50 4 50 4 0 2 194 12 330 16 258 8 689 3 875 -10 47 -3
128 -8 180 -10 52 -3 109 -7 125 -9 31 -5 176 -19 208 -20 9 0 17 -4 17 -9 0
-5 6 -4 13 2 8 6 16 8 20 5 3 -3 23 -7 44 -9 21 -2 38 -4 38 -5 0 -1 16 -3 35
-5 103 -10 157 -16 170 -20 8 -3 33 -7 55 -10 110 -15 184 -27 225 -35 25 -6
61 -12 80 -14 19 -2 42 -7 50 -10 8 -2 33 -7 55 -10 22 -3 51 -8 65 -11 14 -3
41 -8 60 -11 19 -4 39 -9 44 -12 6 -3 19 -7 30 -8 34 -4 90 -14 106 -20 8 -3
29 -8 45 -11 17 -2 57 -11 90 -20 33 -8 67 -17 75 -19 8 -2 76 -19 150 -39 74
-20 140 -37 147 -38 7 -2 16 -6 19 -10 4 -4 14 -7 22 -7 18 0 205 -58 362
-112 63 -21 122 -41 131 -43 8 -2 33 -11 55 -20 21 -9 44 -18 49 -19 6 -1 44
-15 85 -31 41 -16 77 -30 80 -31 10 -2 46 -17 86 -35 22 -11 43 -19 47 -19 4
0 37 -14 74 -31 38 -17 84 -38 103 -46 19 -8 48 -21 64 -29 16 -8 35 -14 43
-14 7 0 13 -4 13 -10 0 -5 6 -10 13 -10 14 0 321 -153 343 -171 8 -6 14 -8 14
-4 0 5 8 2 18 -6 9 -8 28 -20 41 -27 13 -8 39 -22 57 -33 19 -10 51 -28 72
-40 56 -32 106 -62 112 -68 3 -4 15 -12 28 -18 55 -32 67 -39 86 -55 11 -10
26 -18 33 -18 7 0 13 -4 13 -10 0 -5 6 -10 14 -10 8 0 16 -4 18 -8 2 -4 32
-28 68 -52 36 -25 70 -49 77 -55 71 -58 219 -125 243 -110 5 3 11 2 14 -3 6
-10 126 -8 176 2 185 39 337 178 391 359 11 37 17 71 14 76 -3 6 -1 12 4 16 7
4 7 15 1 30 -5 14 -6 25 -1 25 10 0 6 50 -8 114 -11 46 -45 126 -73 171 -17
26 -117 125 -148 147 -14 9 -77 54 -140 99 -63 45 -123 84 -132 86 -10 3 -18
9 -18 13 0 4 -16 15 -35 26 -19 10 -35 23 -35 28 0 5 -3 6 -7 3 -3 -4 -21 4
-39 18 -18 14 -35 25 -38 25 -3 0 -26 14 -51 31 -26 18 -65 41 -88 53 -23 12
-59 32 -79 44 -88 51 -121 69 -283 152 -158 81 -379 184 -567 264 -76 32 -320
128 -331 130 -7 2 -19 6 -28 10 -39 17 -427 147 -449 151 -14 2 -38 9 -55 16
-36 15 -33 14 -70 24 -16 4 -93 25 -170 47 -77 21 -147 40 -155 41 -8 1 -20 5
-25 9 -6 3 -31 9 -55 13 -25 4 -47 11 -48 16 -2 5 -8 7 -12 4 -5 -3 -46 4 -92
16 -46 11 -94 23 -107 25 -12 3 -53 12 -90 20 -36 9 -75 18 -86 19 -11 2 -31
6 -45 9 -45 8 -105 18 -117 19 -7 0 -13 3 -13 6 0 3 -10 6 -22 7 -13 0 -39 4
-58 8 -42 8 -75 14 -115 20 -16 2 -43 6 -60 9 -16 3 -46 8 -65 11 -19 3 -46 8
-60 11 -14 3 -45 7 -70 10 -25 3 -56 7 -70 10 -45 7 -134 18 -165 21 -16 1
-43 4 -60 7 -16 3 -59 8 -95 12 -86 9 -121 15 -133 22 -6 4 -7 1 -2 -7 5 -9 4
-11 -3 -6 -7 4 -38 9 -69 12 -32 2 -83 6 -113 9 -220 20 -301 24 -610 31 -129
2 -254 6 -277 8 -24 1 -44 2 -45 0z"/>
<path d="M8525 6302 c-4 -4 -189 -14 -297 -16 -38 0 -68 -3 -68 -6 0 -3 -19
-5 -43 -6 -42 -1 -149 -9 -242 -20 -27 -3 -68 -7 -90 -9 -22 -2 -58 -6 -80 -9
-22 -3 -58 -8 -80 -11 -22 -3 -56 -7 -75 -10 -19 -2 -55 -7 -80 -9 -25 -3 -67
-10 -95 -15 -27 -5 -68 -12 -90 -15 -23 -4 -52 -8 -65 -11 -13 -3 -42 -7 -65
-10 -69 -10 -98 -16 -105 -20 -4 -2 -25 -7 -46 -10 -41 -5 -53 -8 -94 -18 -24
-7 -64 -14 -105 -21 -11 -2 -51 -11 -90 -21 -38 -9 -77 -18 -85 -19 -8 -2 -25
-6 -37 -10 -21 -7 -46 -13 -93 -22 -14 -3 -34 -8 -45 -11 -11 -4 -25 -8 -31
-9 -6 -1 -91 -25 -190 -54 -98 -28 -183 -53 -189 -54 -5 -2 -23 -8 -38 -14
-16 -7 -32 -12 -38 -12 -9 0 -287 -98 -344 -121 -16 -7 -38 -14 -48 -16 -10
-2 -28 -9 -40 -15 -12 -7 -25 -13 -29 -14 -5 -1 -9 -2 -10 -4 -2 -1 -10 -3
-18 -5 -12 -3 -152 -62 -225 -95 -113 -51 -158 -70 -166 -70 -5 0 -9 -4 -9
-10 0 -5 -7 -10 -15 -10 -9 0 -27 -7 -40 -16 -14 -9 -25 -12 -25 -8 0 5 -4 4
-8 -2 -7 -12 -94 -54 -111 -54 -5 0 -11 -3 -13 -7 -1 -5 -37 -26 -78 -47 -41
-22 -88 -48 -105 -57 -16 -10 -57 -32 -90 -50 -33 -17 -62 -35 -65 -39 -3 -4
-22 -15 -42 -25 -21 -9 -38 -21 -38 -26 0 -5 -6 -9 -14 -9 -8 0 -21 -6 -28
-12 -7 -7 -26 -20 -43 -28 -16 -8 -32 -18 -35 -21 -9 -12 -112 -79 -120 -79
-5 0 -10 -3 -12 -8 -1 -4 -34 -29 -73 -56 -70 -49 -116 -84 -145 -109 -8 -7
-35 -28 -60 -47 -106 -79 -156 -152 -175 -255 -45 -239 169 -450 410 -403 71
14 181 78 261 153 6 6 27 21 47 35 20 14 37 28 37 33 0 4 7 7 15 7 9 0 18 7
21 15 4 8 10 15 15 15 9 0 67 37 79 50 17 19 317 200 330 200 5 0 10 4 12 9 3
9 321 173 453 233 44 20 103 47 130 59 28 13 55 23 60 24 6 1 33 11 60 24 28
13 75 32 105 43 30 11 69 26 85 33 32 14 449 155 475 160 8 2 15 4 15 5 0 1 8
3 18 6 35 8 42 10 62 17 11 3 31 9 45 12 14 3 102 25 195 50 94 25 202 52 240
60 39 9 79 18 90 20 10 3 36 7 56 10 20 3 51 10 69 15 18 5 37 7 41 4 5 -3 9
-1 9 3 0 5 8 9 18 9 9 1 33 4 52 8 19 4 52 8 72 10 20 3 45 7 55 10 16 4 74
14 123 21 8 1 35 5 60 9 25 4 56 9 70 11 14 2 43 6 65 9 22 3 63 8 90 11 28 3
68 7 90 10 71 9 252 26 315 29 19 1 40 5 47 9 6 4 14 3 18 -3 4 -6 11 -8 16
-4 11 6 128 14 274 18 44 1 86 5 93 9 6 5 12 5 12 0 0 -9 77 -10 86 0 4 3 14
2 24 -3 10 -5 20 -7 24 -3 8 9 58 10 82 1 12 -4 25 -4 28 -1 7 8 105 7 113 0
3 -4 14 -2 24 4 11 5 19 6 19 1 0 -10 30 -9 48 2 6 4 12 4 12 -1 0 -4 37 -8
83 -9 86 -1 269 -10 397 -20 41 -3 90 -6 108 -7 17 0 32 -3 32 -6 0 -3 21 -6
48 -7 58 -1 140 -9 287 -30 28 -3 68 -8 90 -10 22 -2 63 -8 90 -14 28 -5 66
-12 85 -14 19 -3 61 -10 94 -15 32 -6 61 -10 65 -9 3 1 13 -2 21 -5 8 -3 33
-9 55 -12 83 -12 97 -15 105 -20 5 -3 30 -8 56 -11 27 -3 51 -7 55 -9 3 -2 19
-7 35 -9 16 -3 126 -31 244 -61 118 -30 225 -57 236 -59 12 -2 31 -9 43 -15
11 -7 21 -9 21 -7 0 3 12 1 28 -5 15 -6 34 -12 42 -14 8 -2 65 -20 125 -40 61
-20 117 -38 125 -40 8 -2 40 -13 70 -25 30 -12 62 -23 70 -25 8 -2 33 -11 55
-21 22 -10 42 -18 45 -19 3 -1 19 -5 35 -10 17 -4 35 -11 40 -15 6 -4 48 -22
95 -41 47 -18 87 -36 90 -39 3 -3 12 -6 20 -8 22 -5 217 -97 345 -163 185 -96
200 -104 206 -112 3 -5 8 -8 10 -6 2 1 24 -11 49 -26 25 -16 47 -30 50 -30 27
-5 393 -253 454 -307 17 -16 34 -28 38 -28 3 0 13 -6 20 -13 114 -109 250
-154 374 -122 265 69 352 391 159 591 -11 11 -63 54 -115 94 -52 41 -97 76
-100 80 -3 3 -32 24 -65 45 -33 22 -62 42 -65 45 -10 11 -99 70 -105 70 -3 0
-15 9 -27 20 -12 11 -34 26 -50 32 -15 7 -28 16 -28 20 0 5 -5 8 -11 8 -6 0
-34 15 -62 33 -101 65 -112 71 -119 69 -5 -1 -8 1 -8 6 0 4 -15 13 -32 21 -18
8 -35 17 -38 20 -14 17 -566 291 -585 291 -3 0 -27 10 -53 21 -126 57 -149 67
-172 75 -14 4 -27 9 -30 9 -3 1 -18 7 -35 14 -59 25 -291 109 -360 130 -38 13
-77 25 -85 28 -17 7 -13 6 -70 23 -41 12 -52 15 -85 23 -5 1 -14 5 -20 8 -5 4
-35 12 -65 19 -30 7 -59 15 -65 19 -5 3 -14 6 -20 8 -13 3 -127 33 -140 36 -5
2 -37 9 -70 16 -33 7 -67 16 -75 19 -18 6 -27 9 -60 15 -14 3 -45 10 -70 16
-59 15 -91 22 -115 26 -11 2 -45 8 -75 15 -30 6 -66 13 -80 16 -14 2 -45 9
-70 14 -25 5 -61 12 -80 14 -19 3 -46 8 -60 11 -14 3 -42 8 -64 10 -21 2 -48
7 -59 11 -11 4 -34 8 -51 9 -17 1 -51 5 -76 9 -25 4 -76 11 -115 16 -98 13
-155 20 -192 26 -17 2 -64 6 -105 9 -40 2 -73 5 -73 5 0 1 -16 3 -35 5 -170
16 -270 23 -430 29 -55 3 -104 7 -109 10 -5 4 -13 2 -16 -4 -5 -8 -11 -7 -21
1 -11 9 -14 9 -14 0 0 -7 -5 -9 -12 -5 -18 12 -451 12 -465 1 -7 -5 -13 -5
-13 0 0 8 -157 13 -165 5z"/>
</g>
</svg>
